<svg width="50" height="50" viewBox="0 0 50 50" fill="none" xmlns="http://www.w3.org/2000/svg">
<rect width="49.9901" height="49.8951" rx="5" fill="#F2F2F3"/>
<mask id="path-2-inside-1_5_60" fill="white">
<path fill-rule="evenodd" clip-rule="evenodd" d="M44.5963 34.9561C45.0995 34.1655 44.244 33.2565 43.3519 33.5434C41.2852 34.2079 39.0824 34.5667 36.7962 34.5667C24.9309 34.5667 15.3123 24.9038 15.3123 12.984C15.3123 10.684 15.6704 8.46809 16.3337 6.38937C16.6185 5.49659 15.7072 4.645 14.919 5.15178C8.95399 8.98673 5 15.7013 5 23.3437C5 35.2635 14.6187 44.9264 26.4839 44.9264C34.0937 44.9264 40.7795 40.9517 44.5963 34.9561Z"/>
</mask>
<path d="M16.3337 6.38937L13.4756 5.47742L16.3337 6.38937ZM43.3519 33.5434L42.4336 30.6874L43.3519 33.5434ZM44.5963 34.9561L47.127 36.5671L44.5963 34.9561ZM42.4336 30.6874C40.66 31.2577 38.7668 31.5667 36.7962 31.5667V37.5667C39.398 37.5667 41.9104 37.1582 44.2702 36.3994L42.4336 30.6874ZM36.7962 31.5667C26.6007 31.5667 18.3123 23.2599 18.3123 12.984H12.3123C12.3123 26.5477 23.2611 37.5667 36.7962 37.5667V31.5667ZM18.3123 12.984C18.3123 10.9971 18.6214 9.0886 19.1917 7.30131L13.4756 5.47742C12.7194 7.84758 12.3123 10.371 12.3123 12.984H18.3123ZM8 23.3437C8 16.7605 11.4022 10.9793 16.5413 7.67526L13.2966 2.62831C6.50581 6.99417 2 14.6422 2 23.3437H8ZM26.4839 41.9264C16.2885 41.9264 8 33.6196 8 23.3437H2C2 36.9073 12.9489 47.9264 26.4839 47.9264V41.9264ZM42.0656 33.345C38.774 38.5156 33.0216 41.9264 26.4839 41.9264V47.9264C35.1659 47.9264 42.785 43.3877 47.127 36.5671L42.0656 33.345ZM19.1917 7.30131C19.7203 5.64458 19.1333 4.00181 18.0334 3.01385C16.8777 1.97579 14.9787 1.54687 13.2966 2.62831L16.5413 7.67526C16.1671 7.91586 15.677 8.04571 15.1629 7.98535C14.6774 7.92836 14.2914 7.71775 14.0241 7.47762C13.5056 7.01196 13.2319 6.24138 13.4756 5.47742L19.1917 7.30131ZM44.2702 36.3994C43.507 36.6448 42.7379 36.3727 42.2724 35.8581C42.0322 35.5925 41.8206 35.2084 41.7616 34.7242C41.6991 34.2112 41.8264 33.7207 42.0656 33.345L47.127 36.5671C48.2012 34.8797 47.7627 32.9836 46.7223 31.8333C45.7319 30.7383 44.0889 30.1552 42.4336 30.6874L44.2702 36.3994Z" fill="#1F2421" mask="url(#path-2-inside-1_5_60)"/>
</svg>
